<svg id="Layer_1" data-name="Layer 1" xmlns="http://www.w3.org/2000/svg" viewBox="0 0 691.59 396.36"><defs><style>.cls-1{fill:#fff;}</style></defs><title>lilas-logo-white</title><path class="cls-1" d="M195.6,368.83c-30.33-17.36-75-32.32-102-36.49a5.78,5.78,0,0,1-4.76-6.83l36.4-184.71a5.8,5.8,0,0,0-5.76-6.91c-42.46.54-80.66,6.25-101.61,29.44C4.56,177.84-1.86,199.71.47,230.55a5.8,5.8,0,0,0,8.27,4.79L33,223.83a5.76,5.76,0,0,0,2.77-7.65c-8.71-18.14-8.63-36.24,0-44.43,9.73-8.37,25.08-11.49,41.07-13.37a5.79,5.79,0,0,1,6.36,6.89L49.43,334.35a5.74,5.74,0,0,0,5.09,6.81c31.51,3.33,75.47,28.23,99,53.37a5.77,5.77,0,0,0,6.71,1.26l34.95-16.71A5.79,5.79,0,0,0,195.6,368.83Z"/><path class="cls-1" d="M166,185.44a21.07,21.07,0,0,0,15-5.79,19.35,19.35,0,0,0,6.58-14.74,19.93,19.93,0,0,0-6.32-14.74,19.26,19.26,0,0,0-14.48-6.06A20.83,20.83,0,0,0,152,150l-.35.35a21.87,21.87,0,0,0-5.88,14.56,20.49,20.49,0,0,0,5.53,14.74A20,20,0,0,0,166,185.44Z"/><path class="cls-1" d="M522.53,221.77c-6.32-13.69-21.33-21.33-41.07-22.38-13.69-1.32-27.38.26-39.76,5.79-22.91,9.22-27.12,28.7-16.06,43.71,3.65,6.26,11.44,13.3,18.24,17.27a3.84,3.84,0,0,1,.38.25c6.43,4.85,11.64,7,20.6,12.08a5,5,0,0,1,.53.35c7.34,5.51,16.56,13.08,12.65,21.93-3.4,7.83-10.16,13.08-18.49,16.76l-.41.17c-14.7,5.43-32.19,2.78-35.6-5.87-2.85-5.93,1.8-13,12.91-18a4.8,4.8,0,0,0,1.19-8l-10.94-9.31a4.76,4.76,0,0,0-5.28-.62c-12.4,6.52-19.13,18-19,28.81-14.19,15.08-34.27,21.83-30-.46,6.06-30.28,11.58-53.71,19.75-94l.92-4.37a4.67,4.67,0,0,0-4.57-5.63H327.69c-47.13,1.58-67.93,44-71.62,86.36a58.6,58.6,0,0,0,.95,17.66c-13.48,15.61-33.52,23-29.12.24,5.84-29.18,21.95-106.31,31.12-151.92a4.18,4.18,0,0,0-4.1-5h-27a4.18,4.18,0,0,0-4.1,3.36l-27,134.87a92.55,92.55,0,0,0-1.46,10.14c-13.74,20.67-41.92,34.1-36.72,7,5.83-29.88,11.65-56.11,19.58-97.67a4.22,4.22,0,0,0-4.14-5H146.29a4.21,4.21,0,0,0-4.12,3.35l-16.68,80.11c-12.2,61,40.14,61.07,70.35,27.05,5.48,31.36,41,28,64.61,3.33,12.86,25.69,49.58,26.27,72.75.83a4.67,4.67,0,0,1,7.91,1.63c8.29,24.63,41,20.87,64.09-1.17,18.57,34.2,120.82,19.44,108.48-31.85a6,6,0,0,0-.21-.69c-2.36-6.34-6.46-11.21-12-15.82q-.2-.17-.42-.31a196.87,196.87,0,0,0-21.11-12.49,103,103,0,0,1-18.76-12.46,5.27,5.27,0,0,1-.39-.38c-3.26-3.51-4-4.38-4.81-10.06-1-5.17,3.26-12.62,11.14-16.13a4.46,4.46,0,0,0,.82-.48,25.75,25.75,0,0,1,18.05-4.19c11.19.93,12.21,8.47,10.45,15.6a9.46,9.46,0,0,0,5.92,11.29l9.49,3.36a9.54,9.54,0,0,0,12.74-9.38A28.55,28.55,0,0,0,522.53,221.77Zm-170.16,4.36-12.1,62.51a4.74,4.74,0,0,1-.86,1.94c-35.89,47.8-53,23.06-43.05-24.31,9-41.81,39.07-70,55.38-43.52A4.75,4.75,0,0,1,352.37,226.13Z"/><path class="cls-1" d="M666.38,218.93a6.88,6.88,0,0,1-4.13-1.38l-28.35-21.18A126.06,126.06,0,0,1,597,201.72c-52.13,0-94.54-30.7-94.54-68.44S544.92,64.84,597,64.84s94.54,30.7,94.54,68.44c0,18.51-10.22,36.08-28.23,48.88l9.54,27.61a6.9,6.9,0,0,1-6.52,9.15ZM635.17,181.8a6.91,6.91,0,0,1,4.13,1.37l13.22,9.88-3.95-11.44a6.91,6.91,0,0,1,2.88-8.11c16.75-10.4,26.34-25.06,26.34-40.23,0-30.13-36.22-54.64-80.74-54.64s-80.74,24.51-80.74,54.64,36.22,54.64,80.74,54.64a111.36,111.36,0,0,0,35.9-5.75A6.92,6.92,0,0,1,635.17,181.8Z"/><path class="cls-1" d="M412.39,168.95a7.48,7.48,0,0,1-7.07-9.92l10.51-30.41c-20.91-14-32.78-33.56-32.78-54.48C383.05,33.26,429,0,485.48,0c54.12,0,98,29.4,102.1,68.4A7.48,7.48,0,1,1,572.71,70c-3.24-30.85-41.55-55-87.23-55C437.25,15,398,41.51,398,74.14c0,17.15,11.15,33.49,30.61,44.84a7.47,7.47,0,0,1,3.3,8.9l-4.51,13L443,129.26a7.49,7.49,0,0,1,6.67-1.16,123.71,123.71,0,0,0,51.16,4.3,7.47,7.47,0,1,1,1.79,14.84A139.58,139.58,0,0,1,449,143.46l-32.11,24A7.46,7.46,0,0,1,412.39,168.95Z"/></svg>