<svg id="Layer_5" enable-background="new 0 0 64 64" height="512" viewBox="0 0 64 64" width="512" xmlns="http://www.w3.org/2000/svg" xmlns:xlink="http://www.w3.org/1999/xlink"><linearGradient id="SVGID_1_" gradientUnits="userSpaceOnUse" x1="32" x2="32" y1="63" y2="1"><stop offset="0" stop-color="#9f2fff"/><stop offset="1" stop-color="#0bb1d3"/></linearGradient><path d="m21 29c-7.72 0-14 6.28-14 14s6.28 14 14 14 14-6.28 14-14-6.28-14-14-14zm0 26c-6.617 0-12-5.383-12-12s5.383-12 12-12 12 5.383 12 12-5.383 12-12 12zm-7.678-9.747-1.92.562c-.207-.708-.335-1.442-.382-2.185l1.996-.125c.037.595.14 1.183.306 1.748zm-.222-3.521-1.976-.314c.117-.731.315-1.451.591-2.139l1.856.744c-.219.549-.378 1.124-.471 1.709zm.906 5.156c.29.519.636 1.005 1.031 1.445l-1.49 1.334c-.493-.551-.926-1.157-1.287-1.805zm7.181-13.888h-.375c-1.55 0-2.812 1.262-2.812 2.812l.89 7.311c.126 1.07 1.032 1.877 2.11 1.877s1.984-.807 2.109-1.867l.862-6.824.029-.497c0-1.55-1.262-2.812-2.813-2.812zm-.063 9.891c-.015.125-.231.135-.248-.01l-.85-6.695-.026-.399c.014-.436.373-.787.812-.787h.375c.448 0 .813.364.814.752zm-.124 4.109c-1.654 0-3 1.346-3 3s1.346 3 3 3 3-1.346 3-3-1.346-3-3-3zm0 4c-.551 0-1-.448-1-1s.449-1 1-1 1 .448 1 1-.449 1-1 1zm8-42h-8v14h-3.721l-.869 2.606c-1.561.411-3.057 1.032-4.46 1.852l-2.461-1.231-5.262 5.263 1.23 2.461c-.819 1.403-1.44 2.899-1.851 4.46l-2.606.868v7.441l2.606.869c.411 1.561 1.032 3.057 1.851 4.46l-1.23 2.461 5.262 5.263 2.461-1.231c1.403.819 2.899 1.44 4.46 1.852l.869 2.606h7.441l.869-2.606c1.561-.411 3.057-1.032 4.46-1.852l2.461 1.231 5.262-5.263-.754-1.51h17.982v-8h8v-44h-34zm3.116 48.34-2.168-1.084-.476.298c-1.514.948-3.156 1.63-4.881 2.026l-.547.126-.765 2.294h-4.559l-.765-2.294-.547-.126c-1.725-.396-3.367-1.078-4.881-2.026l-.476-.298-2.167 1.084-3.223-3.224 1.083-2.167-.298-.477c-.949-1.514-1.63-3.156-2.026-4.881l-.125-.548-2.295-.764v-4.559l2.294-.765.125-.548c.396-1.725 1.078-3.367 2.026-4.881l.298-.477-1.083-2.167 3.223-3.224 2.168 1.084.476-.298c1.514-.948 3.156-1.63 4.881-2.026l.547-.126.766-2.292h4.559l.765 2.294.547.126c1.725.396 3.367 1.078 4.881 2.026l.476.298 2.168-1.084 3.223 3.224-1.083 2.167.298.477c.949 1.514 1.63 3.156 2.026 4.881l.125.548 2.294.764v4.559l-2.294.765-.125.548c-.396 1.725-1.078 3.367-2.026 4.881l-.298.477 1.083 2.167zm20.884-6.34h-15.891c.544-1.092.974-2.233 1.285-3.41l2.606-.869v-7.441l-2.606-.869c-.411-1.561-1.032-3.057-1.851-4.46l1.23-2.461-5.262-5.263-2.461 1.231c-1.403-.819-2.899-1.44-4.46-1.852l-.869-2.606h-1.721v-12h30zm8-48v40h-6v-34h-24v-6zm-35.5 17h-.5v-2h.5c.827 0 1.5-.673 1.5-1.5 0-1.93 1.57-3.5 3.5-3.5h.5v2h-.5c-.827 0-1.5.673-1.5 1.5 0 .98-.407 1.864-1.058 2.5.651.636 1.058 1.52 1.058 2.5 0 .827.673 1.5 1.5 1.5h.5v2h-.5c-1.93 0-3.5-1.57-3.5-3.5 0-.827-.673-1.5-1.5-1.5zm25 22h.5v2h-.5c-.827 0-1.5.673-1.5 1.5 0 1.93-1.57 3.5-3.5 3.5h-.5v-2h.5c.827 0 1.5-.673 1.5-1.5 0-.98.407-1.864 1.058-2.5-.651-.636-1.058-1.52-1.058-2.5 0-.827-.673-1.5-1.5-1.5h-.5v-2h.5c1.93 0 3.5 1.57 3.5 3.5 0 .827.673 1.5 1.5 1.5zm.5-27h-18v-2h18zm-4 4h-14v-2h14zm2-2h2v2h-2zm2 6h-18v-2h18zm-10 2h10v2h-10zm0 4h10v2h-10zm0 4h10v2h-10z" fill="url(#SVGID_1_)"/></svg>