<svg id="Layer_3" enable-background="new 0 0 64 64" height="512" viewBox="0 0 64 64" width="512" xmlns="http://www.w3.org/2000/svg" xmlns:xlink="http://www.w3.org/1999/xlink"><linearGradient id="SVGID_1_" gradientUnits="userSpaceOnUse" x1="32" x2="32" y1="63" y2="1"><stop offset="0" stop-color="#9f2fff"/><stop offset="1" stop-color="#0bb1d3"/></linearGradient><path d="m31 39v-2.142c-1.721-.447-3-1.999-3-3.858h2c0 1.103.897 2 2 2s2-.897 2-2-.897-2-2-2c-2.206 0-4-1.794-4-4 0-1.858 1.279-3.411 3-3.858v-2.142h2v2.142c1.721.447 3 2 3 3.858h-2c0-1.103-.897-2-2-2s-2 .897-2 2 .897 2 2 2c2.206 0 4 1.794 4 4 0 1.859-1.279 3.411-3 3.858v2.142zm6 7.247v2.753h2v2h-2v7c0 2.757-2.243 5-5 5s-5-2.243-5-5v-7h-2v-2h2v-2.753c-6.941-2.14-12-8.613-12-16.247 0-1.998.364-3.907 1-5.689v-11.311h8v2.008c1.247-.668 2.592-1.172 4-1.513v-4.495h8v4.495c1.408.341 2.753.845 4 1.513v-2.008h8v11.311c.636 1.782 1 3.692 1 5.689 0 7.634-5.059 14.107-12 16.247zm5-29.964c1.551 1.134 2.909 2.513 4 4.095v-5.378h-4zm-12-3.155c.657-.077 1.322-.128 2-.128s1.343.051 2 .128v-2.128h-4zm-12 7.25c1.091-1.583 2.449-2.962 4-4.095v-1.283h-4zm14 24.622c8.271 0 15-6.729 15-15s-6.729-15-15-15-15 6.729-15 15 6.729 15 15 15zm3 6h-6v7c0 1.654 1.346 3 3 3s3-1.346 3-3zm0-4.281c-.976.174-1.975.281-3 .281s-2.024-.107-3-.281v2.281h6zm-31-37.719h8v26h-8zm2 24h4v-22h-4zm46-24h8v26h-8zm2 24h4v-22h-4zm5-29c0 1.654-1.346 3-3 3-.958 0-1.804-.46-2.353-1.162l-6.653 2.218c-.03 1.628-1.359 2.944-2.994 2.944s-2.964-1.316-2.994-2.944l-6.653-2.218c-.549.702-1.395 1.162-2.353 1.162s-1.804-.46-2.353-1.162l-6.653 2.218c-.03 1.628-1.359 2.944-2.994 2.944s-2.964-1.316-2.994-2.944l-6.653-2.218c-.55.702-1.395 1.162-2.353 1.162-1.654 0-3-1.346-3-3s1.346-3 3-3c1.635 0 2.964 1.316 2.994 2.944l6.653 2.218c.549-.702 1.395-1.162 2.353-1.162s1.804.46 2.353 1.162l6.653-2.218c.03-1.628 1.359-2.944 2.994-2.944s2.964 1.316 2.994 2.944l6.653 2.218c.549-.702 1.395-1.162 2.353-1.162s1.804.46 2.353 1.162l6.653-2.218c.03-1.628 1.359-2.944 2.994-2.944 1.654 0 3 1.346 3 3zm-50 0c0-.551-.448-1-1-1s-1 .449-1 1 .448 1 1 1 1-.449 1-1zm12 4c0-.551-.448-1-1-1s-1 .449-1 1 .448 1 1 1 1-.449 1-1zm12-4c0-.551-.448-1-1-1s-1 .449-1 1 .448 1 1 1 1-.449 1-1zm12 4c0-.551-.448-1-1-1s-1 .449-1 1 .448 1 1 1 1-.449 1-1zm12-4c0-.551-.448-1-1-1s-1 .449-1 1 .448 1 1 1 1-.449 1-1zm-55 54h14v-2h-14zm18 0v-2h-2v2zm0-6h-18v2h18zm0-4h-18v2h18zm38 8h-14v2h14zm4 2v-2h-2v2zm0-6h-18v2h18zm0-4h-18v2h18zm-21-19h-2v2h2zm-18 2h2v-2h-2zm9 12c-7.168 0-13-5.832-13-13s5.832-13 13-13 13 5.832 13 13-5.832 13-13 13zm0-2c6.065 0 11-4.935 11-11s-4.935-11-11-11-11 4.935-11 11 4.935 11 11 11z" fill="url(#SVGID_1_)"/></svg>