<svg id="Layer_35" enable-background="new 0 0 64 64" height="512" viewBox="0 0 64 64" width="512" xmlns="http://www.w3.org/2000/svg" xmlns:xlink="http://www.w3.org/1999/xlink"><linearGradient id="SVGID_1_" gradientUnits="userSpaceOnUse" x1="32" x2="32" y1="63" y2="1"><stop offset="0" stop-color="#9f2fff"/><stop offset="1" stop-color="#0bb1d3"/></linearGradient><path d="m16 36v-2c0-1.103-.897-2-2-2-2.206 0-4-1.794-4-4v-4h3v-2h2v2.142c1.721.447 3 1.999 3 3.858h-2c0-1.103-.897-2-2-2h-2v2c0 1.103.897 2 2 2 2.206 0 4 1.794 4 4v4h-3v2h-2v-2.142c-1.721-.447-3-1.999-3-3.858h2c0 1.103.897 2 2 2zm7-6h-2v2h2zm-16 0h-2v2h2zm16-29h40v43 1 8c0 6.495-15.972 10-31 10s-31-3.505-31-10v-6c0-2.116 1.773-4.057 5.138-5.672-3.115-2.377-5.138-6.116-5.138-10.328 0-7.168 5.832-13 13-13 3.493 0 6.662 1.392 9 3.641zm-9 41c6.065 0 11-4.935 11-11s-4.935-11-11-11-11 4.935-11 11 4.935 11 11 11zm-5.813.611c-.408.167-.795.337-1.159.511.296 2.496 9.728 5.878 24.972 5.878 11.219 0 19.732-1.855 23.256-4h-32.256v-4.641c-2.338 2.249-5.507 3.641-9 3.641-2.091 0-4.061-.508-5.813-1.389zm-1.187 14.279v-3.808c-1.63-.697-2.989-1.484-4-2.359v2.277c0 1.309 1.427 2.67 4 3.89zm42-1.484v3.993c2.293-.483 4.308-1.052 6-1.677v-3.911c-1.799.62-3.822 1.153-6 1.595zm-2 .372c-1.926.33-3.941.595-6 .792v4.018c2.141-.203 4.144-.477 6-.804zm-8 .962c-1.991.147-4.005.231-6 .252v4c2.086-.02 4.089-.103 6-.241zm-8 .253c-2.003-.021-4.016-.101-6-.244v4.003c1.911.137 3.914.22 6 .241zm-8-.412c-2.063-.194-4.079-.453-6-.778v3.982c1.856.327 3.859.601 6 .804zm-8-1.151c-2.18-.439-4.205-.967-6-1.583v3.875c1.692.625 3.707 1.194 6 1.677zm46-2.43v-2.303c-1.011.87-2.376 1.651-4 2.346v3.847c2.573-1.22 4-2.581 4-3.89zm0-8h-2.727c-3.098 4.116-15.574 6-26.273 6-12.429 0-24.991-2.36-26.776-6.882-1.439.95-2.224 1.944-2.224 2.882 0 3.784 11.91 8 29 8 16.653 0 28.431-4.003 28.981-7.741l.019.003zm-36-42v21.104c1.26 2.002 2 4.362 2 6.896s-.74 4.894-2 6.896v5.104h36v-40zm21 13.586 5.586-5.586-3.542-3.542 11.33-2.832-2.832 11.33-3.542-3.542-7 7-4-4-9.293 9.293-1.414-1.414 10.707-10.707zm5.956-8.044 3.502 3.502 1.168-4.67zm1.044 8.458h6v24h-30v-14h6v12h2v-16h6v16h2v-18h6v18h2zm-20 12h-2v10h2zm14 10h2v-16h-2zm-8 0h2v-14h-2zm16 0h2v-20h-2zm-26-34h-2v2h2zm16 0h-14v2h14zm-16 4h-2v2h2zm16 0h-14v2h14z" fill="url(#SVGID_1_)"/></svg>