<svg id="Layer_35" enable-background="new 0 0 64 64" height="512" viewBox="0 0 64 64" width="512" xmlns="http://www.w3.org/2000/svg" xmlns:xlink="http://www.w3.org/1999/xlink"><linearGradient id="SVGID_1_" gradientUnits="userSpaceOnUse" x1="32" x2="32" y1="63" y2="1"><stop offset="0" stop-color="#9f2fff"/><stop offset="1" stop-color="#0bb1d3"/></linearGradient><path d="m56 51.284v-21.284c0-7.168-5.832-13-13-13-3.834 0-7.275 1.678-9.656 4.327.412-1.038.656-2.155.656-3.327v-4c0-7.168-5.832-13-13-13h-.528c-2.979 0-5.673 1.57-7.14 4.13-3.117.845-5.332 3.701-5.332 6.969v5.901c0 3.595 2.099 6.757 5.364 8.202.866 1.621 2.112 3.016 3.636 4.066v.771c0 .794-.471 1.514-1.198 1.832l-7.789 3.408c-4.26 1.863-7.013 6.072-7.013 10.721v1h29v3.284c-4.252 1.866-7 6.071-7 10.716v1h40v-1c0-4.645-2.748-8.849-7-10.716zm-13-32.284c6.065 0 11 4.935 11 11v20.409l-5.802-2.539c-.727-.318-1.198-1.038-1.198-1.832v-.771c3.062-2.109 5-5.62 5-9.514v-4.753h-1.949c-1.096 0-2.171-.377-3.027-1.062l-1.798-1.438c-1.21-.967-2.729-1.5-4.276-1.5-1.472 0-2.931.486-4.109 1.369l-2.841 2.131v5.254c0 3.894 1.938 7.405 5 9.514v.771c0 .794-.471 1.514-1.198 1.832l-5.802 2.538v-20.409c0-6.065 4.935-11 11-11zm5.25 35h-10.5l-1.383-3.32 2.236-.978c.122-.053.234-.12.349-.184.742.699 2.025 1.482 4.048 1.482s3.306-.783 4.049-1.482c.114.064.227.131.349.184l2.236.978zm-.833 2-2.083 5h-4.667l-2.083-5zm-5.417-25h-2v3c0 1.654 1.346 3 3 3 .552 0 1 .448 1 1v1h-1c-.552 0-1-.448-1-1h-2c0 1.302.839 2.402 2 2.816v2.184h2v-2h2v-3c0-1.654-1.346-3-3-3-.552 0-1-.448-1-1v-1h1c.552 0 1 .448 1 1h2c0-1.302-.839-2.402-2-2.816v-1.103l1.774 1.419c1.197.957 2.696 1.488 4.226 1.5v2.754c0 4.312-2.866 8.063-7 9.212-4.134-1.148-7-4.9-7-9.212v-4.254l2.04-1.531c1.121-.84 2.601-1.102 3.96-.814zm.758 15.97.242.061.242-.062c.618-.154 1.212-.359 1.782-.605.052.636.25 1.238.575 1.765-.464.407-1.273.871-2.599.871s-2.135-.464-2.599-.87c.325-.527.522-1.13.575-1.765.57.245 1.164.45 1.782.605zm-12.758-16.97v4.533l-3.802-1.663c-.727-.318-1.198-1.038-1.198-1.832v-.771c1.524-1.05 2.771-2.445 3.636-4.066.998-.442 1.883-1.042 2.635-1.771-.806 1.692-1.271 3.575-1.271 5.57zm-9.28 12h.559l1.333 4h-3.226zm.662-2h-.764l-1.068-2.136 1.45-1.45 1.45 1.45zm3.124-2.909-2.009-2.008 1.614-1.291c.314.329.686.605 1.105.815zm-14.506-19.091v-5.901c0-2.479 1.765-4.632 4.196-5.118l.479-.096.219-.438c1.064-2.126 3.201-3.447 5.578-3.447h.528c6.065 0 11 4.935 11 11v4c0 2.002-.847 3.826-2.253 5.12.16-.767.253-1.557.253-2.366v-5.254l-2.841-2.131c-1.178-.883-2.637-1.369-4.108-1.369-1.548 0-3.066.533-4.277 1.5l-1.796 1.438c-.858.685-1.933 1.062-3.029 1.062h-1.949v4.754c0 .809.093 1.599.253 2.366-1.406-1.294-2.253-3.118-2.253-5.12zm8.851-2 1.149-.919v.919zm-4.851 4.754v-2.754c1.439-.011 2.841-.496 4-1.348v2.348c0 1.654 1.346 3 3 3 .552 0 1 .448 1 1v1h-1c-.552 0-1-.448-1-1h-2c0 1.302.839 2.402 2 2.816v2.184h2v-2h2v-3c0-1.654-1.346-3-3-3-.552 0-1-.448-1-1v-1h1c.552 0 1 .448 1 1h2c0-1.302-.839-2.402-2-2.816v-2.03c1.36-.287 2.839-.026 3.959.814l2.041 1.532v4.254c0 4.312-2.866 8.063-7 9.212-4.134-1.149-7-4.901-7-9.212zm6.758 11.216.242.061.242-.062c.618-.154 1.212-.359 1.782-.605.018.221.053.438.106.649l-2.13 1.706-2.13-1.705c.053-.211.088-.428.106-.649.57.245 1.164.45 1.782.605zm-2.869 1.822 1.614 1.291-2.138 2.138-.971-2.427.208-.091c.497-.218.927-.534 1.287-.911zm-9.076 4.318 5.748-2.515 2.074 5.184 1.424-1.424.861 1.722-1.64 4.923h-7.06l.761-3.804-1.961-.392-.84 4.196h-5.128c.356-3.449 2.539-6.479 5.761-7.89zm15.907 7.89-1.641-4.923.861-1.722 1.554 1.554 1.566-5.479 2.94 1.287v9.283zm6.093 7.11 3.721-1.628 3.966 9.518h-6.28l.761-3.804-1.961-.393-.84 4.197h-5.129c.357-3.449 2.54-6.479 5.762-7.89zm25.007 7.89-.839-4.196-1.961.393.76 3.803h-6.28l3.966-9.518 3.721 1.628c3.223 1.41 5.405 4.44 5.762 7.89z" fill="url(#SVGID_1_)"/></svg>