<svg id="Layer_5" enable-background="new 0 0 64 64" height="512" viewBox="0 0 64 64" width="512" xmlns="http://www.w3.org/2000/svg" xmlns:xlink="http://www.w3.org/1999/xlink"><linearGradient id="SVGID_1_" gradientUnits="userSpaceOnUse" x1="32" x2="32" y1="63" y2="1"><stop offset="0" stop-color="#9f2fff"/><stop offset="1" stop-color="#0bb1d3"/></linearGradient><path d="m7 27h-2v-2h2zm4-2h-2v2h2zm4 0h-2v2h2zm40.023-4h7.977v42h-62v-42h29.977c.467-.353.996-.636 1.586-.813l6.437-1.931v-1.518c-1.864-1.302-3-3.451-3-5.738v-3c0-3.86 3.14-7 7-7s7 3.14 7 7v3c0 2.288-1.136 4.436-3 5.738v1.518l6.437 1.931c.589.177 1.119.46 1.586.813zm-8.738-.87-1.871 1.87 2.044 2.044.898-3.593zm-8.184-13.13h1.07c1.557 0 3.021-.606 4.122-1.707l.707-.707.707.707c.872.872 1.974 1.428 3.167 1.623-.497-2.236-2.49-3.916-4.874-3.916-2.414 0-4.434 1.721-4.899 4zm2.4 8.326.499.289v2.971l2 2 2-2v-2.971l.499-.289c1.543-.894 2.501-2.552 2.501-4.326v-2.069c-1.464-.154-2.845-.688-4-1.596-1.372 1.08-3.056 1.665-4.829 1.665h-1.171v2c0 1.774.958 3.432 2.501 4.326zm-1.857 5.125.898 3.593 2.044-2.044-1.871-1.871zm-7.644 4.525v6.024h24v-6.024c0-1.335-.859-2.49-2.138-2.874l-3.588-1.076-1.732 6.93-4.542-4.542-4.542 4.542-1.732-6.93-3.588 1.076c-1.279.384-2.138 1.539-2.138 2.874zm-28-1.976v6h26v-4.024c0-.701.156-1.365.418-1.976zm58 38v-30h-4v2h-28v-2h-26v30zm0-38h-4.418c.262.611.418 1.275.418 1.976v4.024h4zm-28 30h26v6h-26zm12 2h-4v2h4zm2 2h4v-2h-4zm10-2h-4v2h4zm-22 2h4v-2h-4zm22-6h2v-2h-2zm-4-2v2h2v-2zm-2 0h-18v2h18zm-18-2h26v-2h-26zm0-4h26v-2h-26zm0-4h26v-2h-26zm-2 7c0 7.168-5.832 13-13 13s-13-5.832-13-13 5.832-13 13-13 13 5.832 13 13zm-10.719 5c.344-1.212.6-2.554.684-4h-5.93c.083 1.447.338 2.789.681 4zm-3.889 2c.544 1.368 1.142 2.466 1.606 3.219.464-.755 1.06-1.852 1.605-3.219zm-8.178-2h5.419c-.31-1.223-.526-2.568-.599-4h-5.983c.129 1.43.537 2.779 1.163 4zm7.505-10c-.344 1.212-.6 2.554-.684 4h5.93c-.083-1.447-.338-2.789-.681-4zm3.889-2c-.544-1.368-1.142-2.466-1.606-3.219-.464.755-1.06 1.852-1.605 3.219zm-5.975 2h-5.419c-.626 1.221-1.034 2.57-1.164 4h5.983c.074-1.432.291-2.777.6-4zm8.734 10h5.419c.626-1.221 1.034-2.57 1.164-4h-5.983c-.074 1.432-.291 2.777-.6 4zm6.582-6c-.13-1.43-.537-2.779-1.164-4h-5.419c.31 1.223.526 2.568.599 4zm-8.966-9.812c.556.951 1.211 2.241 1.772 3.812h4.724c-1.618-1.956-3.901-3.336-6.496-3.812zm-10.462 3.812h4.724c.561-1.571 1.216-2.86 1.772-3.812-2.595.476-4.878 1.856-6.496 3.812zm6.496 17.812c-.556-.951-1.211-2.241-1.772-3.812h-4.724c1.618 1.956 3.901 3.336 6.496 3.812zm10.462-3.812h-4.724c-.561 1.571-1.216 2.86-1.772 3.812 2.595-.476 4.878-1.856 6.496-3.812z" fill="url(#SVGID_1_)"/></svg>