<svg height="496pt" viewBox="0 0 496 496" width="496pt" xmlns="http://www.w3.org/2000/svg" xmlns:xlink="http://www.w3.org/1999/xlink"><linearGradient id="a" gradientUnits="userSpaceOnUse" x1="248" x2="248" y1="496" y2="0"><stop offset="0" stop-color="#9f2fff"/><stop offset="1" stop-color="#0bb1d3"/></linearGradient><path d="m467.496094 153.496094-51.496094-15.449219v-12.144531c14.910156-10.414063 24-27.605469 24-45.902344v-24c0-30.878906-25.121094-56-56-56s-56 25.121094-56 56v24c0 18.304688 9.089844 35.488281 24 45.902344v12.144531l-36 10.800781-36-10.800781v-12.144531c14.910156-10.414063 24-27.605469 24-45.902344v-24c0-30.878906-25.121094-56-56-56s-56 25.121094-56 56v24c0 18.304688 9.089844 35.488281 24 45.902344v12.144531l-36 10.800781-36-10.800781v-12.144531c14.910156-10.414063 24-27.605469 24-45.902344v-24c0-30.878906-25.121094-56-56-56s-56 25.121094-56 56v24c0 18.304688 9.089844 35.488281 24 45.902344v12.144531l-51.496094 15.449219c-17.046875 5.113281-28.503906 20.511718-28.503906 38.3125v72.191406h40v96h96v72h-56v64h128v-64h-56v-72h24v5.769531l10.351562 3.453125c1.375 4.953125 3.34375 9.699219 5.886719 14.183594l-4.886719 9.769531 19.472657 19.480469 9.769531-4.886719c4.484375 2.535157 9.230469 4.503907 14.183594 5.878907l3.453125 10.351562h27.539062l3.445313-10.359375c4.953125-1.375 9.695312-3.34375 14.183594-5.878906l9.769531 4.886719 19.472656-19.480469-4.886719-9.769531c2.535156-4.496094 4.503906-9.230469 5.886719-14.183594l10.359375-3.445313v-5.769531h24v72h-56v64h128v-64h-56v-72h96v-96h40v-72.191406c0-17.800782-11.457031-33.199219-28.503906-38.3125zm-83.496094-137.496094c19.3125 0 35.472656 13.769531 39.191406 32h-21.304687c-10.460938 0-20.941407-2.472656-30.3125-7.160156l-5.160157-2.574219-4.078124 4.078125c-3.582032 3.59375-8.566407 5.65625-13.648438 5.65625h-3.878906c3.71875-18.230469 19.878906-32 39.191406-32zm-40 64v-16h4.6875c7.496094 0 14.625-2.320312 20.585938-6.617188 10.285156 4.34375 21.453124 6.617188 32.613281 6.617188h22.113281v16c0 14.191406-7.664062 27.457031-20.007812 34.609375l-3.992188 2.3125v22.796875l-16 10.664062-16-10.664062v-22.796875l-3.992188-2.3125c-12.34375-7.152344-20.007812-20.417969-20.007812-34.609375zm-96-64c19.3125 0 35.472656 13.769531 39.191406 32h-21.304687c-10.460938 0-20.941407-2.472656-30.3125-7.160156l-5.160157-2.574219-4.078124 4.078125c-3.582032 3.59375-8.566407 5.65625-13.648438 5.65625h-3.878906c3.71875-18.230469 19.878906-32 39.191406-32zm-40 64v-16h4.6875c7.496094 0 14.625-2.320312 20.585938-6.617188 10.285156 4.34375 21.453124 6.617188 32.613281 6.617188h22.113281v16c0 14.191406-7.664062 27.457031-20.007812 34.609375l-3.992188 2.3125v22.796875l-16 10.664062-16-10.664062v-22.796875l-3.992188-2.3125c-12.34375-7.152344-20.007812-20.417969-20.007812-34.609375zm-38.894531 88.824219 53.589843-16.082031 25.304688 16.875 25.304688-16.875 53.589843 16.074218c10.234375 3.070313 17.105469 12.3125 17.105469 22.992188v56.191406h-192v-56.191406c0-10.679688 6.871094-19.921875 17.105469-22.984375zm-57.105469-152.824219c19.3125 0 35.472656 13.769531 39.191406 32h-3.878906c-5.082031 0-10.066406-2.0625-13.65625-5.65625l-4.082031-4.078125-5.160157 2.574219c-9.359374 4.6875-19.839843 7.160156-30.300781 7.160156h-21.304687c3.71875-18.230469 19.878906-32 39.191406-32zm-40 64v-16h22.113281c11.160157 0 22.328125-2.273438 32.613281-6.617188 5.960938 4.296876 13.097657 6.617188 20.585938 6.617188h4.6875v16c0 14.191406-7.664062 27.457031-20.007812 34.609375l-3.992188 2.3125v22.796875l-16 10.664062-16-10.664062v-22.796875l-3.992188-2.3125c-12.34375-7.152344-20.007812-20.417969-20.007812-34.609375zm-56 168v-56.191406c0-10.679688 6.871094-19.921875 17.105469-22.992188l53.589843-16.082031 25.304688 16.882813 25.304688-16.875 17.496093 5.25c-11.511719 7.160156-18.800781 19.6875-18.800781 33.816406v56.191406zm176 200v32h-96v-32zm112-93.769531-8.03125 2.671875-.914062 4.554687c-1.222657 6.128907-3.613282 11.878907-7.09375 17.109375l-2.578126 3.859375 3.792969 7.582031-3.160156 3.167969-7.574219-3.800781-3.867187 2.578125c-5.222657 3.488281-10.980469 5.863281-17.109375 7.09375l-4.554688.90625-2.679687 8.046875h-4.460938l-2.679687-8.039062-4.554688-.90625c-6.128906-1.222657-11.878906-3.605469-17.109375-7.09375l-3.867187-2.578126-7.574219 3.800782-3.160156-3.167969 3.792969-7.582031-2.578126-3.859375c-3.488281-5.222657-5.871093-10.980469-7.09375-17.109375l-.914062-4.554688-8.03125-2.679687v-4.46875l8.03125-2.671875.914062-4.554688c1.222657-6.136718 3.613282-11.886718 7.09375-17.109375l2.578126-3.859375-3.792969-7.589844 3.160156-3.160156 7.574219 3.800782 3.867187-2.578126c5.222657-3.488281 10.980469-5.863281 17.109375-7.09375l4.554688-.90625 2.679687-8.039062h4.460938l2.679687 8.039062 4.554688.90625c6.128906 1.222657 11.878906 3.605469 17.109375 7.09375l3.867187 2.578126 7.574219-3.800782 3.160156 3.160156-3.792969 7.589844 2.578126 3.859375c3.488281 5.214844 5.871093 10.972657 7.09375 17.109375l.914062 4.554688 8.03125 2.679687zm96 93.769531v32h-96v-32zm40-104h-120v-5.769531l-10.351562-3.453125c-1.375-4.953125-3.34375-9.707032-5.886719-14.183594l4.886719-9.777344-19.472657-19.472656-9.769531 4.886719c-4.484375-2.535157-9.230469-4.503907-14.183594-5.878907l-3.453125-10.351562h-27.539062l-3.445313 10.359375c-4.953125 1.375-9.695312 3.34375-14.183594 5.878906l-9.769531-4.886719-19.472656 19.472657 4.886719 9.777343c-2.535156 4.488282-4.503906 9.230469-5.886719 14.183594l-10.359375 3.445313v5.769531h-120v-80h384zm40-96h-120v-56.191406c0-14.128906-7.289062-26.65625-18.800781-33.816406l17.496093-5.25 25.304688 16.875 25.304688-16.875 53.589843 16.074218c10.234375 3.070313 17.105469 12.3125 17.105469 22.992188zm-232 72c-17.648438 0-32 14.351562-32 32s14.351562 32 32 32 32-14.351562 32-32-14.351562-32-32-32zm0 48c-8.824219 0-16-7.175781-16-16s7.175781-16 16-16 16 7.175781 16 16-7.175781 16-16 16zm-160-40h-16v-16h16zm32 0h-16v-16h16zm32 0h-16v-16h16zm208 0h-16v-16h16zm32 0h-16v-16h16zm32 0h-16v-16h16zm0 0" fill="url(#a)"/></svg>