<?xml version="1.0" encoding="utf-8"?>
<!-- Generator: Adobe Illustrator 18.1.1, SVG Export Plug-In . SVG Version: 6.00 Build 0)  -->
<svg version="1.1" id="Layer_1" xmlns="http://www.w3.org/2000/svg" xmlns:xlink="http://www.w3.org/1999/xlink" x="0px" y="0px"
	 viewBox="222.4 -164.8 456.4 417.2" enable-background="new 222.4 -164.8 456.4 417.2" xml:space="preserve">
<g>
	<g>
		<path fill="#294A70" d="M526-75.4l-61.6,38.6c-4.4-1-9.3-1.5-14.5-1.5c-5,0-9.8,0.5-14.1,1.4l-62.4-39.1l-5.8-3.5v6.9v99.1v7
			l6.2-3.8l61.3-38.4c4.5,1,9.5,1.6,14.8,1.6c5.5,0,10.6-0.6,15.2-1.7l61.7,38.7l5.8,3.6v-6V-72.6v-6.9L526-75.4z"/>
	</g>
</g>
<path fill="#294A70" d="M450,118.8c-78.2,0-141.8-63.6-141.8-141.8S371.8-164.8,450-164.8S591.8-101.2,591.8-23
	S528.2,118.8,450,118.8z M450-157.8c-74.3,0-134.8,60.5-134.8,134.8c0,74.3,60.5,134.8,134.8,134.8c74.3,0,134.8-60.5,134.8-134.8
	C584.8-97.3,524.3-157.8,450-157.8z"/>
</svg>
