<svg width="224" height="42" viewBox="0 0 224 42" fill="none" xmlns="http://www.w3.org/2000/svg">
<path d="M107.251 21.8904C107.231 23.3425 106.648 24.7284 105.627 25.7483C104.606 26.7682 103.23 27.34 101.796 27.34C100.362 27.34 98.9856 26.7682 97.9648 25.7483C96.9439 24.7284 96.3607 23.3425 96.3413 21.8904V10.8418H91.9775V21.3378C91.9775 23.9749 93.012 26.504 94.8534 28.3687C96.6948 30.2335 99.1924 31.2811 101.797 31.2811C104.401 31.2811 106.898 30.2335 108.74 28.3687C110.581 26.504 111.616 23.9749 111.616 21.3378V10.8418H107.251V21.8904Z" fill="#4D4D4D"/>
<path d="M127.211 24.6516L130.714 14.7082L134.217 24.6516H127.211ZM127.739 10.8418L120.351 30.7285H125.071L125.85 28.5189H135.58L136.359 30.7285H141.08L133.691 10.8418H127.739Z" fill="#4D4D4D"/>
<path d="M165.08 25.2042L154.752 10.8418H149.806V30.7285H154.169V16.3661L164.497 30.7285H169.444V10.8418H165.08V25.2042Z" fill="#4D4D4D"/>
<path d="M178.171 10.8408V14.7072H185.808V30.7275H190.172V14.7083H196.717L197.813 10.8418L178.171 10.8408Z" fill="#4D4D4D"/>
<path d="M213.632 27.4136C209.813 27.4136 207.631 24.5314 207.631 20.785C207.631 17.0386 209.813 14.1565 213.632 14.1565C217.451 14.1565 219.632 17.0386 219.632 20.785C219.632 24.5314 217.45 27.4136 213.632 27.4136ZM213.632 10.2891C211.582 10.2891 209.578 10.9047 207.874 12.058C206.169 13.2113 204.841 14.8505 204.057 16.7684C203.272 18.6863 203.067 20.7967 203.467 22.8327C203.867 24.8687 204.854 26.7389 206.303 28.2068C207.753 29.6747 209.6 30.6743 211.61 31.0793C213.621 31.4843 215.705 31.2764 217.599 30.482C219.493 29.6876 221.111 28.3423 222.25 26.6163C223.389 24.8902 223.997 22.8609 223.997 20.785C223.994 18.0023 222.901 15.3345 220.958 13.3668C219.015 11.3991 216.38 10.2923 213.632 10.2891Z" fill="#4D4D4D"/>
<path d="M64.7056 20.785C64.7056 17.0376 66.8875 14.1564 70.7066 14.1564C74.5256 14.1564 76.7065 17.0386 76.7065 20.785C76.7065 24.5314 74.5246 27.4136 70.7066 27.4136C66.8885 27.4136 64.7056 24.5314 64.7056 20.785ZM78.735 27.4136C79.7831 26.1122 80.5075 24.5752 80.8473 22.9316C81.1871 21.288 81.1325 19.5858 80.688 17.968C80.2435 16.3502 79.4221 14.8641 78.2928 13.6344C77.1635 12.4048 75.7593 11.4676 74.1981 10.9015C72.6369 10.3353 70.9644 10.1569 69.321 10.3811C67.6776 10.6052 66.1113 11.2256 64.7537 12.1898C63.3962 13.1541 62.2869 14.4342 61.5192 15.9227C60.7515 17.4111 60.3477 19.0644 60.3418 20.7436C60.3759 23.5504 61.501 26.2304 63.4733 28.2027C65.4455 30.175 68.106 31.2807 70.8779 31.2799H83.2522L84.3477 27.4125L78.735 27.4136Z" fill="#4D4D4D"/>
<path d="M0.181641 29.9686C0.181532 30.6494 0.448386 31.3023 0.92354 31.7838L9.56549 40.5402C9.80079 40.7786 10.0802 40.9678 10.3878 41.0967C10.6954 41.2256 11.0251 41.2918 11.358 41.2915H30.5549C30.5553 39.9446 30.2937 38.6109 29.7851 37.3665C29.2765 36.122 28.5308 34.9912 27.5907 34.0385C26.6505 33.0859 25.5343 32.3301 24.3057 31.8143C23.0771 31.2986 21.7602 31.0329 20.4302 31.0325H12.8368C12.1654 31.0322 11.5215 30.7619 11.0468 30.281C10.5721 29.8001 10.3054 29.148 10.3054 28.468V10.5176H0.181641V29.9686Z" fill="#4563D9"/>
<path d="M39.94 9.7626L31.298 1.00618C31.0628 0.767656 30.7833 0.578556 30.4757 0.449632C30.1681 0.320708 29.8384 0.2545 29.5055 0.254884H10.3076V10.5139H28.0257C28.6972 10.5142 29.3411 10.7845 29.8158 11.2654C30.2905 11.7463 30.5571 12.3984 30.5571 13.0784V20.7728C30.5563 23.4927 31.6225 26.1015 33.521 28.0255C35.4195 29.9494 37.995 31.0308 40.6809 31.0318V11.5778C40.6812 11.2408 40.616 10.907 40.4888 10.5955C40.3617 10.284 40.1752 10.001 39.94 9.7626Z" fill="#4563D9"/>
</svg>
